<svg width="19" height="20" viewBox="0 0 19 20" fill="none" xmlns="http://www.w3.org/2000/svg">
<path fill-rule="evenodd" clip-rule="evenodd" d="M14 8C14 11.3137 11.3137 14 8 14C4.68629 14 2 11.3137 2 8C2 4.68629 4.68629 2 8 2C11.3137 2 14 4.68629 14 8ZM12.5838 14.5574C11.2856 15.4666 9.70511 16 8 16C3.58172 16 0 12.4183 0 8C0 3.58172 3.58172 0 8 0C12.4183 0 16 3.58172 16 8C16 9.99981 15.2662 11.8282 14.0532 13.2307C14.0766 13.2502 14.0994 13.2709 14.1213 13.2929L18.364 17.5355C18.7545 17.9261 18.7545 18.5592 18.364 18.9497C17.9734 19.3403 17.3403 19.3403 16.9497 18.9497L12.7071 14.7071C12.6604 14.6604 12.6193 14.6102 12.5838 14.5574Z" fill="#BCBCBC"/>
</svg>
